<svg width="196" height="31" viewBox="0 0 196 31" fill="none" xmlns="http://www.w3.org/2000/svg">
<path d="M0.382812 30V0.703125H9.97266C13.5143 0.703125 16.5807 1.30208 19.1719 2.5C21.763 3.69792 23.7682 5.39062 25.1875 7.57812C26.6068 9.76562 27.3164 12.3568 27.3164 15.3516C27.3164 18.3333 26.6068 20.9245 25.1875 23.125C23.7682 25.3125 21.763 27.0052 19.1719 28.2031C16.5807 29.401 13.5143 30 9.97266 30H0.382812ZM6.39844 24.7461H10.1875C12.5312 24.7461 14.5169 24.3815 16.1445 23.6523C17.7852 22.9102 19.0286 21.8424 19.875 20.4492C20.7344 19.043 21.1641 17.3438 21.1641 15.3516C21.1641 13.3464 20.7344 11.6471 19.875 10.2539C19.0286 8.86068 17.7852 7.79948 16.1445 7.07031C14.5169 6.32812 12.5312 5.95703 10.1875 5.95703H6.39844V24.7461ZM49.0742 27.8125C46.6523 29.5312 44.0026 30.3906 41.125 30.3906C38.9896 30.3906 37.069 29.9349 35.3633 29.0234C33.6706 28.099 32.3294 26.849 31.3398 25.2734C30.3633 23.6979 29.875 21.9206 29.875 19.9414C29.875 18.0534 30.3177 16.3672 31.2031 14.8828C32.1016 13.3984 33.319 12.2266 34.8555 11.3672C36.3919 10.5078 38.1367 10.0781 40.0898 10.0781C42.1081 10.0781 43.8854 10.5534 45.4219 11.5039C46.9583 12.4414 48.1562 13.7565 49.0156 15.4492C49.875 17.1289 50.3047 19.0755 50.3047 21.2891V21.9141H35.9102C36.1445 22.6823 36.5221 23.3594 37.043 23.9453C37.5768 24.5182 38.2409 24.974 39.0352 25.3125C39.8424 25.651 40.7604 25.8203 41.7891 25.8203C43.7812 25.8203 45.6367 25.1758 47.3555 23.8867L49.0742 27.8125ZM35.6562 19.0625H45.1289C45.0247 18.2161 44.7578 17.474 44.3281 16.8359C43.9115 16.1849 43.3581 15.6771 42.668 15.3125C41.9909 14.9479 41.2292 14.7656 40.3828 14.7656C39.5234 14.7656 38.7552 14.9544 38.0781 15.332C37.4141 15.7096 36.8737 16.2174 36.457 16.8555C36.0404 17.4935 35.7734 18.2292 35.6562 19.0625ZM73.0781 10.4688L65.1094 30H59.6797L51.7109 10.4688H57.707L62.4141 24.3359L67.1211 10.4688H73.0781ZM108.059 30H102.453V20.1953C102.453 18.5677 102.134 17.3112 101.496 16.4258C100.858 15.5404 99.9531 15.0977 98.7812 15.0977C97.5833 15.0977 96.6458 15.5469 95.9688 16.4453C95.3047 17.3438 94.9727 18.5938 94.9727 20.1953V30H89.3672V20.1953C89.3672 18.5677 89.0482 17.3112 88.4102 16.4258C87.7721 15.5404 86.8607 15.0977 85.6758 15.0977C84.4909 15.0977 83.5599 15.5469 82.8828 16.4453C82.2188 17.3438 81.8867 18.5938 81.8867 20.1953V30H76.2812V10.4688H80.7539L80.9492 13.6914C81.6003 12.5065 82.4727 11.6081 83.5664 10.9961C84.6732 10.3841 85.9557 10.0781 87.4141 10.0781C88.9375 10.0781 90.2526 10.3971 91.3594 11.0352C92.4661 11.6732 93.319 12.5911 93.918 13.7891C94.582 12.5781 95.4609 11.6602 96.5547 11.0352C97.6615 10.3971 98.9701 10.0781 100.48 10.0781C102.863 10.0781 104.719 10.8398 106.047 12.3633C107.388 13.8737 108.059 15.9896 108.059 18.7109V30ZM130.441 27.8125C128.02 29.5312 125.37 30.3906 122.492 30.3906C120.357 30.3906 118.436 29.9349 116.73 29.0234C115.038 28.099 113.697 26.849 112.707 25.2734C111.73 23.6979 111.242 21.9206 111.242 19.9414C111.242 18.0534 111.685 16.3672 112.57 14.8828C113.469 13.3984 114.686 12.2266 116.223 11.3672C117.759 10.5078 119.504 10.0781 121.457 10.0781C123.475 10.0781 125.253 10.5534 126.789 11.5039C128.326 12.4414 129.523 13.7565 130.383 15.4492C131.242 17.1289 131.672 19.0755 131.672 21.2891V21.9141H117.277C117.512 22.6823 117.889 23.3594 118.41 23.9453C118.944 24.5182 119.608 24.974 120.402 25.3125C121.21 25.651 122.128 25.8203 123.156 25.8203C125.148 25.8203 127.004 25.1758 128.723 23.8867L130.441 27.8125ZM117.023 19.0625H126.496C126.392 18.2161 126.125 17.474 125.695 16.8359C125.279 16.1849 124.725 15.6771 124.035 15.3125C123.358 14.9479 122.596 14.7656 121.75 14.7656C120.891 14.7656 120.122 14.9544 119.445 15.332C118.781 15.7096 118.241 16.2174 117.824 16.8555C117.408 17.4935 117.141 18.2292 117.023 19.0625ZM148.293 29.4922C146.796 30.0911 145.344 30.3906 143.938 30.3906C142.479 30.3906 141.19 30.0846 140.07 29.4727C138.964 28.8477 138.098 27.9818 137.473 26.875C136.848 25.7552 136.535 24.4661 136.535 23.0078V15.4688H133.117V10.4688H136.828V5.58594H142.141V10.4688H147.551V15.4688H142.141V21.9922C142.141 23.0599 142.434 23.8932 143.02 24.4922C143.605 25.0781 144.335 25.3711 145.207 25.3711C146.001 25.3711 146.776 25.1237 147.531 24.6289L148.293 29.4922ZM156.574 30H150.969V10.4688H155.852L156.047 13.8477C156.698 12.6628 157.583 11.7383 158.703 11.0742C159.823 10.4102 161.105 10.0781 162.551 10.0781C162.967 10.0781 163.384 10.1107 163.801 10.1758C164.23 10.2279 164.667 10.3125 165.109 10.4297L164.406 15.4688C163.547 15.2214 162.733 15.0977 161.965 15.0977C160.884 15.0977 159.934 15.3451 159.113 15.8398C158.306 16.3216 157.681 16.9987 157.238 17.8711C156.796 18.7305 156.574 19.7396 156.574 20.8984V30ZM170.52 5.80078C169.777 5.80078 169.152 5.54036 168.645 5.01953C168.137 4.4987 167.883 3.86719 167.883 3.125C167.883 2.38281 168.137 1.75781 168.645 1.25C169.152 0.729167 169.777 0.46875 170.52 0.46875C171.275 0.46875 171.906 0.729167 172.414 1.25C172.935 1.75781 173.195 2.38281 173.195 3.125C173.195 3.86719 172.935 4.4987 172.414 5.01953C171.906 5.54036 171.275 5.80078 170.52 5.80078ZM173.332 30H167.727V10.4688H173.332V30ZM195.461 26.8945C194.51 27.9883 193.345 28.8477 191.965 29.4727C190.585 30.0846 189.068 30.3906 187.414 30.3906C185.409 30.3906 183.612 29.9544 182.023 29.082C180.448 28.1966 179.204 26.9857 178.293 25.4492C177.395 23.9128 176.945 22.1745 176.945 20.2344C176.945 18.2812 177.395 16.543 178.293 15.0195C179.204 13.4831 180.448 12.2786 182.023 11.4062C183.612 10.5208 185.409 10.0781 187.414 10.0781C189.055 10.0781 190.565 10.3841 191.945 10.9961C193.326 11.6081 194.491 12.4544 195.441 13.5352L192.141 16.9922C191.633 16.4062 190.988 15.9505 190.207 15.625C189.439 15.2865 188.632 15.1172 187.785 15.1172C186.809 15.1172 185.936 15.3385 185.168 15.7812C184.4 16.2109 183.794 16.8099 183.352 17.5781C182.909 18.3333 182.688 19.2057 182.688 20.1953C182.688 21.1979 182.909 22.0898 183.352 22.8711C183.794 23.6523 184.4 24.2643 185.168 24.707C185.936 25.1367 186.809 25.3516 187.785 25.3516C188.632 25.3516 189.445 25.1888 190.227 24.8633C191.008 24.5247 191.646 24.0625 192.141 23.4766L195.461 26.8945Z" fill="#61C4B0"/>
</svg>
